<svg width="21" height="16" viewBox="0 0 21 16" fill="none" xmlns="http://www.w3.org/2000/svg">
<path d="M1.55 0.17334C1.05 0.17334 0.75 0.47334 0.75 0.87334C0.75 1.27334 1.05 1.67334 1.45 1.67334H19.95C20.35 1.67334 20.75 1.37334 20.75 0.97334C20.75 0.57334 20.45 0.17334 20.05 0.17334H1.55ZM1.55 6.97334C1.05 6.87334 0.75 7.27334 0.75 7.67334C0.75 8.07334 1.05 8.47334 1.45 8.47334H19.95C20.35 8.47334 20.75 8.17334 20.75 7.77334C20.75 7.37334 20.45 6.97334 20.05 6.97334H1.55ZM1.55 13.6733C1.15 13.6733 0.75 13.9733 0.75 14.3733C0.75 14.8733 1.05 15.1733 1.45 15.1733H19.95C20.35 15.1733 20.75 14.8733 20.75 14.4733C20.75 14.0733 20.45 13.6733 20.05 13.6733H1.55Z" fill="#212629"/>
</svg>
