<svg width="512" height="512" xmlns="http://www.w3.org/2000/svg" class="ionicon">
 <title>Heart</title>

 <g>
  <title>background</title>
  <rect fill="none" id="canvas_background" height="402" width="582" y="-1" x="-1"/>
 </g>
 <g>
  <title>Layer 1</title>
  <path fill="#ffffff" id="svg_1" d="m256,448a32,31.666666 0 0 1 -18,-5.511979c-78.59,-52.79427 -112.62,-88.993227 -131.39,-111.624998c-40,-48.242187 -59.15,-97.770831 -58.61,-151.406247c0.63,-61.46302 50.46,-111.456769 111.08,-111.456769c44.08,0 74.61,24.571354 92.39,45.035937a6,5.9375 0 0 0 9.06,0c17.78,-20.484375 48.31,-45.035937 92.39,-45.035937c60.62,0 110.45,49.993749 111.08,111.466664c0.54,53.645311 -18.63,103.173956 -58.61,151.406247c-18.77,22.63177 -52.8,58.830728 -131.39,111.624998a32,31.666666 0 0 1 -18,5.502083z"/>
 </g>
</svg>