<svg width="18" height="21" xmlns="http://www.w3.org/2000/svg">

 <g>
  <title>background</title>
  <rect fill="none" id="canvas_background" height="402" width="582" y="-1" x="-1"/>
 </g>
 <g>
  <title>Layer 1</title>
  <path id="svg_1" fill="#ffffff" d="m7.8,0c-0.5,0 -0.8,0.3 -0.8,0.7c0,0.4 0.3,0.8 0.7,0.8l0.5,0l0,1c-4.6,0.4 -8.2,4.3 -8.2,9c0,5 4,9 9,9c5,0 9,-4 9,-9c0,-2.2 -0.8,-4.2 -2.1,-5.8l0.9,-0.9c0.3,-0.3 0.3,-0.8 0,-1.1c-0.1,-0.2 -0.3,-0.2 -0.6,-0.2c-0.2,0 -0.4,0.1 -0.5,0.2l-0.9,0.9c-1.4,-1.2 -3.1,-1.9 -5.1,-2.1l0,-1l0.5,0c0.4,0 0.8,-0.3 0.8,-0.7c0,-0.5 -0.3,-0.8 -0.7,-0.8l-2.5,0zm1.1,4c0.1,0 0.1,0 0.2,0c2,0 3.8,0.8 5.2,2.1l0.1,0.1c1.3,1.4 2.2,3.2 2.2,5.3c0,4.2 -3.3,7.5 -7.5,7.5c-4.2,0 -7.5,-3.3 -7.5,-7.5c-0.1,-4.1 3.2,-7.4 7.3,-7.5zm3.3,3.5c-0.2,0 -0.4,0.1 -0.5,0.2l-2.3,2.3c-0.1,0 -0.3,0 -0.4,0c-0.8,0 -1.5,0.7 -1.5,1.5c0,0.8 0.7,1.5 1.5,1.5c0.8,0 1.5,-0.7 1.5,-1.5c0,-0.1 0,-0.3 -0.1,-0.4l2.3,-2.3c0.3,-0.3 0.3,-0.8 0,-1.1c-0.1,-0.1 -0.3,-0.2 -0.5,-0.2z"/>
 </g>
</svg>