<svg width="21" height="20" xmlns="http://www.w3.org/2000/svg">

 <g>
  <title>background</title>
  <rect fill="none" id="canvas_background" height="402" width="582" y="-1" x="-1"/>
 </g>
 <g>
  <title>Layer 1</title>
  <path id="svg_1" fill="#000000" d="m10.5,0c-1.9,0 -3.5,1.1 -4.4,2.7c-0.3,-0.1 -0.7,-0.2 -1.1,-0.2c-2.8,0 -5,2.2 -5,5c0,2.6 2,4.6 4.5,4.9l0,5.9c0,0.4 0.3,0.7 0.8,0.8l10.5,0c0.4,0 0.7,-0.3 0.8,-0.8l0,-5.9c2.4,-0.3 4.4,-2.3 4.4,-4.9c0,-2.8 -2.2,-5 -5,-5c-0.4,0 -0.8,0.1 -1.1,0.2c-0.9,-1.6 -2.5,-2.7 -4.4,-2.7zm0,1.5c1.5,0 2.8,1 3.3,2.3c0.1,0.4 0.6,0.6 1,0.4c0.3,-0.1 0.8,-0.2 1.2,-0.2c1.9,0 3.5,1.6 3.5,3.5c0,1.9 -1.6,3.5 -3.5,3.5c0,0 -0.1,0 -0.2,0c-0.4,0 -0.8,0.3 -0.8,0.7l0,2.8l-9,0l0,-2.8c0,-0.4 -0.3,-0.7 -0.8,-0.7c-0.1,0 -0.2,0 -0.2,0c-1.9,0 -3.5,-1.6 -3.5,-3.5c0,-1.9 1.6,-3.5 3.5,-3.5c0.4,0 0.9,0.1 1.2,0.2c0.4,0.1 0.8,0 1,-0.4c0.5,-1.3 1.8,-2.3 3.3,-2.3zm-1.8,9.5c-0.4,0 -0.7,0.3 -0.7,0.8l0,1c0,0.4 0.3,0.8 0.7,0.8c0.4,0 0.8,-0.3 0.8,-0.7l0,-1c0,-0.6 -0.3,-0.9 -0.8,-0.9c0.1,0 0,0 0,0zm3.5,0c-0.4,0 -0.7,0.3 -0.7,0.8l0,1c0,0.4 0.3,0.8 0.7,0.8c0.4,0 0.8,-0.3 0.8,-0.7l0,-1c0,-0.6 -0.3,-0.9 -0.8,-0.9c0.1,0 0,0 0,0zm-6.2,5l9,0l0,1.5l-9,0l0,-1.5z"/>
 </g>
</svg>