<svg width="18" height="19" xmlns="http://www.w3.org/2000/svg">

 <g>
  <title>background</title>
  <rect fill="none" id="canvas_background" height="402" width="582" y="-1" x="-1"/>
 </g>
 <g>
  <title>Layer 1</title>
  <path id="svg_1" fill="#ffffff" d="m3.8,0c-1.3,0 -2.3,1 -2.3,2.3l0,11.7l-0.7,0c-0.5,0 -0.8,0.3 -0.8,0.8l0,1c0,1.7 1.5,3.2 3.3,3.2l11,0c1.8,0 3.3,-1.5 3.3,-3.3l0,-13.4c0,-1.2 -1,-2.3 -2.3,-2.3l-11.5,0zm0,1.5l11.5,0c0.4,0 0.8,0.3 0.8,0.8l0,13.5c0,1 -0.8,1.8 -1.8,1.8c-1,0 -1.8,-0.8 -1.8,-1.8l0,-1c0,-0.4 -0.3,-0.7 -0.8,-0.8l-8.7,0l0,-11.7c0,-0.5 0.3,-0.8 0.8,-0.8zm2,2.5c-0.5,0 -0.8,0.3 -0.8,0.8c0,0.5 0.3,0.8 0.8,0.8c0.4,0 0.8,-0.3 0.8,-0.8c0,-0.5 -0.4,-0.8 -0.8,-0.8zm2.5,0c-0.5,0 -0.8,0.3 -0.8,0.7c0,0.4 0.3,0.8 0.7,0.8l5,0c0.4,0 0.8,-0.3 0.8,-0.7c0,-0.4 -0.3,-0.8 -0.7,-0.8l-5,0zm-2.5,3c-0.5,0 -0.8,0.3 -0.8,0.8c0,0.5 0.3,0.8 0.8,0.8c0.4,0 0.8,-0.3 0.8,-0.8c0,-0.5 -0.4,-0.8 -0.8,-0.8zm2.5,0c-0.5,0 -0.8,0.3 -0.8,0.7c0,0.4 0.3,0.8 0.7,0.8l5,0c0.4,0 0.8,-0.3 0.8,-0.7c0,-0.5 -0.3,-0.8 -0.7,-0.8l-5,0zm-2.5,3c-0.5,0 -0.8,0.3 -0.8,0.8c0,0.5 0.3,0.8 0.8,0.8c0.4,0 0.8,-0.3 0.8,-0.8c0,-0.5 -0.4,-0.8 -0.8,-0.8zm2.5,0c-0.4,0 -0.8,0.3 -0.8,0.7c0,0.4 0.3,0.8 0.7,0.8l5,0c0.4,0 0.8,-0.3 0.8,-0.7c0,-0.4 -0.3,-0.8 -0.7,-0.8l-5,0zm-6.8,5.5l9.5,0l0,0.3c0,0.7 0.2,1.2 0.6,1.8l-8.3,0c-1,0 -1.8,-0.8 -1.8,-1.8l0,-0.3z"/>
 </g>
</svg>