<svg width="22.000000000000004" height="24" xmlns="http://www.w3.org/2000/svg">

 <g>
  <title>background</title>
  <rect fill="none" id="canvas_background" height="402" width="582" y="-1" x="-1"/>
 </g>
 <g>
  <title>Layer 1</title>
  <path id="svg_1" fill="#ffffff" d="m11,0.986816c-0.6,0 -1,0.400004 -1,1.000004c0,0 0,0 0,0.1c-4.5,0.5 -8,4.3 -8,8.89998l0,0.5l-0.7,0c-0.4,0 -0.8,0.3 -0.8,0.7c0,0.5 0.3,0.8 0.7,0.8l1.5,0l0.9,0c-0.1,0.3 -0.1,0.5 -0.1,0.8c0,0.5 0.2,0.9 0.3,1.1c0.3,0.7 0.4,1.3 0.5,1.9c0.1,0.5 0.2,1 0.6,1.4l-0.7,1.9c-0.1,0.4 0.1,0.8 0.4,1c0.4,0.1 0.8,-0.1 1,-0.4l0.6,-1.7l3.9,1.4l-0.5,1.6c-0.1,0.4 0.1,0.8 0.4,1c0.4,0.1 0.8,-0.1 1,-0.4l0.8,-2.3c0.1,-0.2 0.6,-0.9 1.2,-1.4c0.6,-0.6 1.3,-1.1 1.7,-1.4c1.7,-1.2 3.3,-2.1 3.3,-2.1c0.8,-0.5 1.1,-1.4 0.9,-2.2l0.3,0l1.5,0c0.4,0 0.8,-0.3 0.8,-0.7c0,-0.4 -0.3,-0.8 -0.7,-0.8l-0.8,0l0,-0.7c0,-4.59998 -3.5,-8.39998 -8,-8.89998c0,-0.6 -0.4,-1.100004 -1,-1.100004zm0,2.500004c4.2,0 7.5,3.3 7.5,7.49998l0,0.5l-1.5,0l-13.5,0l0,-0.5c0,-4.19998 3.4,-7.49998 7.5,-7.49998zm-5.3,9.49998l0.1,0c0.2,0 0.3,0.1 0.5,0.2c0,0 0,0.1 0.1,0.1c0.1,0.1 0.2,0.3 0.3,0.6c0.3,0.4 0.6,0.9 1,1.3c0.7,0.8 1.6,0.8 2.1,0.8c0.8,0 1.4,-0.4 2.3,-0.8c0.9,-0.4 1.8,-0.9 2.6,-1.3c0.2,-0.1 0.6,-0.3 1.1,-0.5c0.5,-0.2 1,-0.4 1.3,-0.4c0.2,0 0.4,0.1 0.5,0.3c0.1,0.2 0,0.5 -0.2,0.6c0,0 -1.7,0.9 -3.4,2.2c-0.5,0.4 -1.2,1 -1.9,1.6c-0.4,0.4 -0.8,0.8 -1.2,1.3l-4.6,-1.6c-0.2,-0.2 -0.3,-0.4 -0.3,-0.8c-0.1,-0.5 -0.2,-1.3 -0.6,-2.2c-0.1,-0.3 -0.2,-0.5 -0.2,-0.6c0,-0.2 0.1,-0.4 0.2,-0.5c0,-0.2 0.1,-0.3 0.3,-0.3zm2.2,0l5.3,0c-0.6,0.3 -1.2,0.6 -1.7,0.9c-0.8,0.4 -1.6,0.6 -1.7,0.6c-0.5,0 -0.7,0 -1,-0.3c-0.2,-0.2 -0.6,-0.7 -0.8,-1.1c-0.1,0 -0.1,-0.1 -0.1,-0.1zm-0.1,7.6c-0.4,0 -0.8,0.3 -0.8,0.8c0,0.4 0.3,0.8 0.8,0.8c0.4,0 0.8,-0.3 0.8,-0.8c-0.1,-0.5 -0.4,-0.8 -0.8,-0.8z"/>
 </g>
</svg>