<svg width="24" height="16" viewBox="0 0 24 16" fill="none" xmlns="http://www.w3.org/2000/svg">
<path d="M16.1999 0.699951C14.5999 0.699951 13.0999 1.19995 11.8999 2.09995C10.6999 1.19995 9.1999 0.699951 7.6999 0.699951C3.6999 0.699951 0.399902 3.99995 0.399902 7.99995C0.399902 12 3.6999 15.3 7.6999 15.3C9.2999 15.3 10.7999 14.8 11.9999 13.9C13.1999 14.8 14.6999 15.3 16.2999 15.3C20.2999 15.3 23.5999 12 23.5999 7.99995C23.5999 3.99995 20.0999 0.699951 16.1999 0.699951ZM11.8999 11.8C10.9999 10.8 10.3999 9.39995 10.3999 7.89995C10.3999 6.39995 10.9999 5.09995 11.8999 3.99995C12.7999 4.99995 13.3999 6.39995 13.3999 7.89995C13.3999 9.39995 12.7999 10.8 11.8999 11.8ZM16.1999 13.7C15.0999 13.7 13.9999 13.4 13.0999 12.8C14.2999 11.5 14.9999 9.79995 14.9999 7.99995C14.9999 6.19995 14.2999 4.49995 13.0999 3.19995C13.9999 2.59995 15.0999 2.29995 16.1999 2.29995C19.3999 2.29995 21.9999 4.89995 21.9999 8.09995C21.9999 11.3 19.2999 13.7 16.1999 13.7Z" fill="white"/>
</svg>
