<svg width="23" height="16" viewBox="0 0 23 16" fill="none" xmlns="http://www.w3.org/2000/svg">
<path d="M4.20039 0.5C2.40039 0.5 0.900391 2 0.900391 3.8V12.3C0.900391 14 2.40039 15.5 4.20039 15.5H19.7004C21.5004 15.5 23.0004 14 23.0004 12.2V3.8C22.9004 2 21.4004 0.5 19.7004 0.5H4.20039ZM4.20039 2H19.7004C20.7004 2 21.5004 2.8 21.5004 3.8V12.3C21.5004 13.3 20.7004 14.1 19.7004 14.1H4.20039C3.20039 14.1 2.40039 13.3 2.40039 12.3V3.8C2.40039 2.8 3.20039 2 4.20039 2ZM14.0004 5.3C12.5004 5.3 11.8004 6 11.8004 6.9C11.8004 8.6 13.7004 8.3 13.7004 9.2C13.7004 9.3 13.6004 9.7 12.8004 9.7C12.0004 9.7 11.5004 9.4 11.5004 9.4L11.3004 10.5C11.3004 10.5 11.8004 10.8 12.8004 10.8C13.8004 10.8 15.2004 10 15.2004 8.9C15.2004 7.6 13.3004 7.5 13.3004 6.9C13.3004 6.6 13.5004 6.4 14.2004 6.4C14.6004 6.4 15.2004 6.7 15.2004 6.7L15.3004 5.5C15.3004 5.5 14.6004 5.3 14.0004 5.3ZM9.20039 5.4H7.70039L6.50039 9.1C6.50039 9.1 6.40039 8.8 6.40039 8.6C5.70039 6.9 4.50039 6.3 4.50039 6.3L5.60039 10.5H7.10039L9.20039 5.4ZM9.80039 5.4L9.00039 10.6H10.4004L11.2004 5.4H9.80039ZM17.3004 5.4L15.0004 10.6H16.4004L16.7004 9.9H18.4004L18.5004 10.6H19.9004L18.8004 5.4H17.3004ZM2.90039 5.4C2.90039 5.4 5.60039 6.2 6.30039 8.3L5.80039 5.9C5.80039 5.9 5.60039 5.4 5.00039 5.4H2.90039ZM17.9004 6.9L18.3004 8.9H17.1004L17.9004 6.9Z" fill="#212629"/>
</svg>
